<svg width="39" height="32" viewBox="0 0 39 32" fill="none" xmlns="http://www.w3.org/2000/svg">
<path d="M16 10C17.1046 10 18 9.10457 18 8C18 6.89543 17.1046 6 16 6C14.8954 6 14 6.89543 14 8C14 9.10457 14.8954 10 16 10Z" fill="#CCCCCC"/>
<path d="M16 18C17.1046 18 18 17.1046 18 16C18 14.8954 17.1046 14 16 14C14.8954 14 14 14.8954 14 16C14 17.1046 14.8954 18 16 18Z" fill="#CCCCCC"/>
<path d="M16 26C17.1046 26 18 25.1046 18 24C18 22.8954 17.1046 22 16 22C14.8954 22 14 22.8954 14 24C14 25.1046 14.8954 26 16 26Z" fill="#CCCCCC"/>
<path d="M23 10C24.1046 10 25 9.10457 25 8C25 6.89543 24.1046 6 23 6C21.8954 6 21 6.89543 21 8C21 9.10457 21.8954 10 23 10Z" fill="#CCCCCC"/>
<path d="M23 18C24.1046 18 25 17.1046 25 16C25 14.8954 24.1046 14 23 14C21.8954 14 21 14.8954 21 16C21 17.1046 21.8954 18 23 18Z" fill="#CCCCCC"/>
<path d="M23 26C24.1046 26 25 25.1046 25 24C25 22.8954 24.1046 22 23 22C21.8954 22 21 22.8954 21 24C21 25.1046 21.8954 26 23 26Z" fill="#CCCCCC"/>
</svg>
