<svg width="27" height="27" viewBox="0 0 27 27" fill="none" xmlns="http://www.w3.org/2000/svg">
<path d="M13.5 26.1709C6.3203 26.1709 0.5 20.3506 0.5 13.1709C0.5 5.9912 6.3203 0.170898 13.5 0.170898C20.6797 0.170898 26.5 5.9912 26.5 13.1709C26.5 20.3506 20.6797 26.1709 13.5 26.1709ZM13.5 24.9328C19.9959 24.9328 25.2619 19.6668 25.2619 13.1709C25.2619 6.67498 19.9959 1.40899 13.5 1.40899C7.00408 1.40899 1.7381 6.67498 1.7381 13.1709C1.7381 19.6668 7.00408 24.9328 13.5 24.9328ZM8.54762 13.7899C8.20573 13.7899 7.92857 13.5128 7.92857 13.1709C7.92857 12.829 8.20573 12.5519 8.54762 12.5519H18.4524C18.7943 12.5519 19.0714 12.829 19.0714 13.1709C19.0714 13.5128 18.7943 13.7899 18.4524 13.7899H8.54762Z" fill="black"/>
</svg>
